<svg class="music" width="212" height="219" viewBox="-80 0 302 219">
  <style>
    .music>path {
      fill: var(--color-text, #474747)
    }
  </style>
  <path
    d="M81 178.5C81 196.456 62.856 211 40.5 211C18.144 211 0 196.456 0 178.5C0 160.544 18.144 146 40.5 146C62.856 146 81 160.544 81 178.5Z" />
  <path fill-rule="evenodd" clip-rule="evenodd" d="M81 17V179H65V17H81Z" />
  <path
    d="M65 13.9652C65.0012 11.9474 65.6907 9.99232 66.9512 8.43234C68.2118 6.87235 69.9656 5.80378 71.9144 5.40829L97.7144 0.169359C98.9616 -0.0837403 100.249 -0.0528243 101.483 0.25988C102.717 0.572584 103.867 1.15929 104.851 1.97773C105.834 2.79617 106.627 3.82597 107.172 4.99293C107.716 6.15989 107.999 7.43496 108 8.72628V24.2684L65 33V13.9652Z" />
  <path
    d="M65 46.9652C65.0012 44.9474 65.6907 42.9923 66.9512 41.4323C68.2118 39.8724 69.9656 38.8038 71.9144 38.4083L97.7144 33.1694C98.9616 32.9163 100.249 32.9472 101.483 33.2599C102.717 33.5726 103.867 34.1593 104.851 34.9777C105.834 35.7962 106.627 36.826 107.172 37.9929C107.716 39.1599 107.999 40.435 108 41.7263V57.2684L65 66V46.9652Z" />
  <path
    d="M65 79.9652C65.0012 77.9474 65.6907 75.9923 66.9512 74.4323C68.2118 72.8724 69.9656 71.8038 71.9144 71.4083L97.7144 66.1694C98.9616 65.9163 100.249 65.9472 101.483 66.2599C102.717 66.5726 103.867 67.1593 104.851 67.9777C105.834 68.7962 106.627 69.826 107.172 70.9929C107.716 72.1599 107.999 73.435 108 74.7263V90.2684L65 99V79.9652Z" />
  <path
    d="M65 112.965C65.0012 110.947 65.6907 108.992 66.9512 107.432C68.2118 105.872 69.9656 104.804 71.9144 104.408L97.7144 99.1694C98.9616 98.9163 100.249 98.9472 101.483 99.2599C102.717 99.5726 103.867 100.159 104.851 100.978C105.834 101.796 106.627 102.826 107.172 103.993C107.716 105.16 107.999 106.435 108 107.726V123.268L65 132V112.965Z" />
  <path
    d="M123.672 51.2C124.056 51.2 124.376 51.328 124.632 51.584C124.888 51.84 125.016 52.16 125.016 52.544C125.016 52.912 124.888 53.224 124.632 53.48C124.376 53.72 124.056 53.84 123.672 53.84H115.512C115.096 53.84 114.768 53.712 114.528 53.456C114.288 53.2 114.168 52.872 114.168 52.472C114.168 52.072 114.312 51.72 114.6 51.416L119.832 45.824C120.424 45.184 120.888 44.528 121.224 43.856C121.576 43.184 121.752 42.6 121.752 42.104C121.752 41.304 121.52 40.664 121.056 40.184C120.592 39.688 119.976 39.44 119.208 39.44C118.904 39.44 118.592 39.512 118.272 39.656C117.952 39.8 117.64 40 117.336 40.256C117.048 40.512 116.776 40.808 116.52 41.144C116.328 41.4 116.136 41.56 115.944 41.624C115.752 41.688 115.576 41.72 115.416 41.72C115.064 41.72 114.736 41.592 114.432 41.336C114.144 41.064 114 40.752 114 40.4C114 40.128 114.088 39.864 114.264 39.608C114.456 39.352 114.688 39.088 114.96 38.816C115.36 38.416 115.808 38.064 116.304 37.76C116.8 37.456 117.312 37.224 117.84 37.064C118.368 36.888 118.88 36.8 119.376 36.8C120.448 36.8 121.376 37.016 122.16 37.448C122.96 37.864 123.576 38.464 124.008 39.248C124.44 40.016 124.656 40.928 124.656 41.984C124.656 42.864 124.392 43.848 123.864 44.936C123.352 46.008 122.656 47.016 121.776 47.96L118.536 51.416L118.272 51.2H123.672Z" />
  <path
    d="M129.176 53.816C128.712 53.816 128.352 53.696 128.096 53.456C127.856 53.2 127.736 52.84 127.736 52.376V51.968C127.736 51.504 127.856 51.152 128.096 50.912C128.352 50.656 128.712 50.528 129.176 50.528H129.488C129.952 50.528 130.304 50.656 130.544 50.912C130.8 51.152 130.928 51.504 130.928 51.968V52.376C130.928 52.84 130.8 53.2 130.544 53.456C130.304 53.696 129.952 53.816 129.488 53.816H129.176Z" />
  <path
    d="M115.728 83.136C115.872 83.136 116.024 83.16 116.184 83.208C116.36 83.256 116.552 83.352 116.76 83.496C117.032 83.704 117.352 83.888 117.72 84.048C118.104 84.208 118.544 84.288 119.04 84.288C119.536 84.288 120 84.168 120.432 83.928C120.88 83.672 121.248 83.32 121.536 82.872C121.824 82.408 121.968 81.856 121.968 81.216C121.968 80.608 121.84 80.104 121.584 79.704C121.344 79.304 121.016 79 120.6 78.792C120.2 78.584 119.768 78.48 119.304 78.48C118.952 78.48 118.656 78.512 118.416 78.576C118.192 78.64 117.968 78.712 117.744 78.792C117.536 78.856 117.288 78.888 117 78.888C116.632 78.888 116.344 78.76 116.136 78.504C115.944 78.248 115.848 77.944 115.848 77.592C115.848 77.368 115.888 77.168 115.968 76.992C116.064 76.816 116.2 76.624 116.376 76.416L120.6 71.928L121.248 72.48H115.344C114.96 72.48 114.64 72.352 114.384 72.096C114.128 71.84 114 71.52 114 71.136C114 70.768 114.128 70.464 114.384 70.224C114.64 69.968 114.96 69.84 115.344 69.84H122.688C123.184 69.84 123.552 69.976 123.792 70.248C124.048 70.52 124.176 70.864 124.176 71.28C124.176 71.488 124.12 71.696 124.008 71.904C123.896 72.096 123.76 72.272 123.6 72.432L119.352 76.992L118.704 76.176C118.88 76.096 119.12 76.024 119.424 75.96C119.744 75.896 120.008 75.864 120.216 75.864C121.16 75.864 121.976 76.112 122.664 76.608C123.368 77.088 123.904 77.72 124.272 78.504C124.656 79.272 124.848 80.104 124.848 81C124.848 82.184 124.584 83.208 124.056 84.072C123.528 84.936 122.784 85.6 121.824 86.064C120.864 86.528 119.744 86.76 118.464 86.76C117.872 86.76 117.288 86.688 116.712 86.544C116.136 86.4 115.64 86.208 115.224 85.968C114.872 85.776 114.632 85.568 114.504 85.344C114.392 85.104 114.336 84.88 114.336 84.672C114.336 84.304 114.464 83.96 114.72 83.64C114.992 83.304 115.328 83.136 115.728 83.136Z" />
  <path
    d="M128.763 86.496C128.299 86.496 127.939 86.376 127.683 86.136C127.443 85.88 127.323 85.52 127.323 85.056V84.648C127.323 84.184 127.443 83.832 127.683 83.592C127.939 83.336 128.299 83.208 128.763 83.208H129.075C129.539 83.208 129.891 83.336 130.131 83.592C130.387 83.832 130.515 84.184 130.515 84.648V85.056C130.515 85.52 130.387 85.88 130.131 86.136C129.891 86.376 129.539 86.496 129.075 86.496H128.763Z" />
  <path
    d="M119.232 20.8C118.784 20.8 118.416 20.664 118.128 20.392C117.84 20.104 117.696 19.752 117.696 19.336V7.24L118.032 7.768L116.28 9.064C116.056 9.24 115.776 9.328 115.44 9.328C115.056 9.328 114.72 9.184 114.432 8.896C114.144 8.608 114 8.264 114 7.864C114 7.352 114.248 6.936 114.744 6.616L118.2 4.312C118.36 4.2 118.536 4.12 118.728 4.072C118.936 4.024 119.128 4 119.304 4C119.768 4 120.136 4.144 120.408 4.432C120.68 4.704 120.816 5.048 120.816 5.464V19.336C120.816 19.752 120.664 20.104 120.36 20.392C120.072 20.664 119.696 20.8 119.232 20.8Z" />
  <path
    d="M125.68 20.776C125.216 20.776 124.856 20.656 124.6 20.416C124.36 20.16 124.24 19.8 124.24 19.336V18.928C124.24 18.464 124.36 18.112 124.6 17.872C124.856 17.616 125.216 17.488 125.68 17.488H125.992C126.456 17.488 126.808 17.616 127.048 17.872C127.304 18.112 127.432 18.464 127.432 18.928V19.336C127.432 19.8 127.304 20.16 127.048 20.416C126.808 20.656 126.456 20.776 125.992 20.776H125.68Z" />
  <path
    d="M122.096 119.56C121.696 119.56 121.36 119.424 121.088 119.152C120.816 118.864 120.68 118.512 120.68 118.096V106.816L121.184 106.936L116.552 112.672L116.432 112.36H124.928C125.312 112.36 125.632 112.488 125.888 112.744C126.144 113 126.272 113.32 126.272 113.704C126.272 114.072 126.144 114.384 125.888 114.64C125.632 114.88 125.312 115 124.928 115H114.44C114.104 115 113.776 114.864 113.456 114.592C113.152 114.32 113 113.984 113 113.584C113 113.232 113.12 112.912 113.36 112.624L120.944 103.336C121.072 103.16 121.24 103.024 121.448 102.928C121.656 102.816 121.888 102.76 122.144 102.76C122.56 102.76 122.896 102.904 123.152 103.192C123.424 103.464 123.56 103.808 123.56 104.224V118.096C123.56 118.512 123.416 118.864 123.128 119.152C122.856 119.424 122.512 119.56 122.096 119.56Z" />
  <path
    d="M129.701 119.536C129.237 119.536 128.877 119.416 128.621 119.176C128.381 118.92 128.261 118.56 128.261 118.096V117.688C128.261 117.224 128.381 116.872 128.621 116.632C128.877 116.376 129.237 116.248 129.701 116.248H130.013C130.477 116.248 130.829 116.376 131.069 116.632C131.325 116.872 131.453 117.224 131.453 117.688V118.096C131.453 118.56 131.325 118.92 131.069 119.176C130.829 119.416 130.477 119.536 130.013 119.536H129.701Z" />
</svg>