<?xml version="1.0" encoding="utf-8"?>
<!-- Generator: Adobe Illustrator 26.3.1, SVG Export Plug-In . SVG Version: 6.00 Build 0)  -->
<svg version="1.1" id="Layer_1" xmlns="http://www.w3.org/2000/svg"
	xmlns:xlink="http://www.w3.org/1999/xlink" x="0px" y="0px" viewBox="0 70 256 130"
	xml:space="preserve">
	<style type="text/css">
		.st0 {
			fill: none;
			stroke: var(--color-text, #474747);
			stroke-width: 5;
			stroke-linejoin: round;
		}

		.st1 {
			fill: var(--color-text, #474747);
		}

		.st2 {
			fill: var(--color-card-bg, #FAFAFA);
		}

		.st3 {
			fill: #61AFEF;
			stroke: var(--color-card-bg, #FAFAFA);
			stroke-width: 2;
			stroke-miterlimit: 10;
		}

		.st4 {
			fill: #98C379;
			stroke: var(--color-card-bg, #FAFAFA);
			stroke-width: 2;
			stroke-miterlimit: 10;
		}

		.st5 {
			fill: #E5C07B;
			stroke: var(--color-card-bg, #FAFAFA);
			stroke-width: 2;
			stroke-miterlimit: 10;
		}
	</style>
	<path class="st0" d="M218.5,84.5c-47.8-10.6-97.8-2.8-140,22" />
	<path class="st0" d="M78.5,106.5c11.2,34.2,39.1,60.2,74,69" />
	<path class="st0" d="M152.5,175.5c5.4-0.7,32.1-4.8,51-29c21-26.8,15.9-57.3,15-62" />
	<path class="st0" d="M78.5,106.5c-13.6,6.5-27.2,13.2-41,20c-9.4,4.7-18.7,9.3-28,14" />
	<path class="st0" d="M152.5,175.5c-24.1,11.2-51.4,13.3-77,6" />
	<circle class="st1" cx="218" cy="84" r="13" />
	<path class="st1" d="M80,97c-6.1,0-11,4.9-11,11s4.9,11,11,11s11-4.9,11-11C91,101.9,86.1,97,80,97C80,97,80,97,80,97z M80,116
	c-4.4,0-8-3.6-8-8s3.6-8,8-8s8,3.6,8,8S84.4,116,80,116z" />
	<circle class="st1" cx="80" cy="108" r="8" />
	<path class="st1" d="M152,157c-9.9,0-18,8.1-18,18s8.1,18,18,18s18-8.1,18-18S161.9,157,152,157z M152,183c-4.4,0-8-3.6-8-8
	s3.6-8,8-8s8,3.6,8,8S156.4,183,152,183z" />
	<circle class="st1" cx="152" cy="175" r="8" />
	<circle class="st1" cx="75" cy="181" r="11" />
	<path class="st1" d="M14,130c-5,0-9,4-9,9s4,9,9,9s9-4,9-9S19,130,14,130z M14,145.5c-3.6,0-6.5-2.9-6.5-6.5s2.9-6.5,6.5-6.5
	s6.5,2.9,6.5,6.5l0,0C20.5,142.6,17.6,145.5,14,145.5C14,145.5,14,145.5,14,145.5z" />
	<circle class="st2" cx="218" cy="84" r="8" />
	<circle class="st2" cx="80" cy="108" r="8" />
	<circle class="st2" cx="152" cy="175" r="8" />
	<circle class="st2" cx="14" cy="139" r="6.5" />
	<circle class="st2" cx="75" cy="181" r="6.5" />
	<circle class="st3" cx="116" cy="90" r="7" />
	<circle class="st4" cx="113" cy="157" r="7" />
	<circle class="st5" cx="208" cy="140" r="7" />
</svg>