<?xml version="1.0" encoding="UTF-8" standalone="no"?>
<!DOCTYPE svg PUBLIC "-//W3C//DTD SVG 1.1//EN" "http://www.w3.org/Graphics/SVG/1.1/DTD/svg11.dtd"><svg width="900" height="900"><rect x="0" y="100" width="100" height="100" fill="#C6CCD7"></rect><text x="5" y="120" fill="#e0e0e0">lightBg:Fail</text><rect x="0" y="200" width="100" height="100" fill="#F384A2"></rect><text x="5" y="220" fill="#e0e0e0">lightBg:Fail</text><rect x="0" y="300" width="100" height="100" fill="#D34F73"></rect><text x="5" y="320" fill="#e0e0e0">lightBg:AA Large</text><rect x="0" y="400" width="100" height="100" fill="#AB2F51"></rect><text x="5" y="420" fill="#e0e0e0">lightBg:AA</text><rect x="0" y="500" width="100" height="100" fill="#21252B"></rect><text x="5" y="520" fill="#e0e0e0">lightBg:AAA</text><rect x="0" y="600" width="100" height="100" fill="#0D1117"></rect><text x="5" y="620" fill="#e0e0e0">lightBg:AAA</text><rect x="0" y="700" width="100" height="100" fill="#ffffff"></rect><text x="5" y="720" fill="#e0e0e0">lightBg:Fail</text><rect x="0" y="800" width="100" height="100" fill="#000000"></rect><text x="5" y="820" fill="#e0e0e0">lightBg:AAA</text><rect x="100" y="0" width="100" height="100" fill="#e0e0e0"></rect><text x="105" y="20" fill="#C6CCD7">darkText:Fail</text><rect x="100" y="200" width="100" height="100" fill="#F384A2"></rect><text x="105" y="220" fill="#C6CCD7">darkText:Fail</text><rect x="100" y="300" width="100" height="100" fill="#D34F73"></rect><text x="105" y="320" fill="#C6CCD7">darkText:Fail</text><rect x="100" y="400" width="100" height="100" fill="#AB2F51"></rect><text x="105" y="420" fill="#C6CCD7">darkText:AA Large</text><rect x="100" y="500" width="100" height="100" fill="#21252B"></rect><text x="105" y="520" fill="#C6CCD7">darkText:AAA</text><rect x="100" y="600" width="100" height="100" fill="#0D1117"></rect><text x="105" y="620" fill="#C6CCD7">darkText:AAA</text><rect x="100" y="700" width="100" height="100" fill="#ffffff"></rect><text x="105" y="720" fill="#C6CCD7">darkText:Fail</text><rect x="100" y="800" width="100" height="100" fill="#000000"></rect><text x="105" y="820" fill="#C6CCD7">darkText:AAA</text><rect x="200" y="0" width="100" height="100" fill="#e0e0e0"></rect><text x="205" y="20" fill="#F384A2">lightRed:Fail</text><rect x="200" y="100" width="100" height="100" fill="#C6CCD7"></rect><text x="205" y="120" fill="#F384A2">lightRed:Fail</text><rect x="200" y="300" width="100" height="100" fill="#D34F73"></rect><text x="205" y="320" fill="#F384A2">lightRed:Fail</text><rect x="200" y="400" width="100" height="100" fill="#AB2F51"></rect><text x="205" y="420" fill="#F384A2">lightRed:Fail</text><rect x="200" y="500" width="100" height="100" fill="#21252B"></rect><text x="205" y="520" fill="#F384A2">lightRed:AA</text><rect x="200" y="600" width="100" height="100" fill="#0D1117"></rect><text x="205" y="620" fill="#F384A2">lightRed:AAA</text><rect x="200" y="700" width="100" height="100" fill="#ffffff"></rect><text x="205" y="720" fill="#F384A2">lightRed:Fail</text><rect x="200" y="800" width="100" height="100" fill="#000000"></rect><text x="205" y="820" fill="#F384A2">lightRed:AAA</text><rect x="300" y="0" width="100" height="100" fill="#e0e0e0"></rect><text x="305" y="20" fill="#D34F73">mediumRed:AA Large</text><rect x="300" y="100" width="100" height="100" fill="#C6CCD7"></rect><text x="305" y="120" fill="#D34F73">mediumRed:Fail</text><rect x="300" y="200" width="100" height="100" fill="#F384A2"></rect><text x="305" y="220" fill="#D34F73">mediumRed:Fail</text><rect x="300" y="400" width="100" height="100" fill="#AB2F51"></rect><text x="305" y="420" fill="#D34F73">mediumRed:Fail</text><rect x="300" y="500" width="100" height="100" fill="#21252B"></rect><text x="305" y="520" fill="#D34F73">mediumRed:AA Large</text><rect x="300" y="600" width="100" height="100" fill="#0D1117"></rect><text x="305" y="620" fill="#D34F73">mediumRed:AA</text><rect x="300" y="700" width="100" height="100" fill="#ffffff"></rect><text x="305" y="720" fill="#D34F73">mediumRed:AA Large</text><rect x="300" y="800" width="100" height="100" fill="#000000"></rect><text x="305" y="820" fill="#D34F73">mediumRed:AA</text><rect x="400" y="0" width="100" height="100" fill="#e0e0e0"></rect><text x="405" y="20" fill="#AB2F51">darkRed:AA</text><rect x="400" y="100" width="100" height="100" fill="#C6CCD7"></rect><text x="405" y="120" fill="#AB2F51">darkRed:AA Large</text><rect x="400" y="200" width="100" height="100" fill="#F384A2"></rect><text x="405" y="220" fill="#AB2F51">darkRed:Fail</text><rect x="400" y="300" width="100" height="100" fill="#D34F73"></rect><text x="405" y="320" fill="#AB2F51">darkRed:Fail</text><rect x="400" y="500" width="100" height="100" fill="#21252B"></rect><text x="405" y="520" fill="#AB2F51">darkRed:Fail</text><rect x="400" y="600" width="100" height="100" fill="#0D1117"></rect><text x="405" y="620" fill="#AB2F51">darkRed:Fail</text><rect x="400" y="700" width="100" height="100" fill="#ffffff"></rect><text x="405" y="720" fill="#AB2F51">darkRed:AA</text><rect x="400" y="800" width="100" height="100" fill="#000000"></rect><text x="405" y="820" fill="#AB2F51">darkRed:AA Large</text><rect x="500" y="0" width="100" height="100" fill="#e0e0e0"></rect><text x="505" y="20" fill="#21252B">darkBG:AAA</text><rect x="500" y="100" width="100" height="100" fill="#C6CCD7"></rect><text x="505" y="120" fill="#21252B">darkBG:AAA</text><rect x="500" y="200" width="100" height="100" fill="#F384A2"></rect><text x="505" y="220" fill="#21252B">darkBG:AA</text><rect x="500" y="300" width="100" height="100" fill="#D34F73"></rect><text x="505" y="320" fill="#21252B">darkBG:AA Large</text><rect x="500" y="400" width="100" height="100" fill="#AB2F51"></rect><text x="505" y="420" fill="#21252B">darkBG:Fail</text><rect x="500" y="600" width="100" height="100" fill="#0D1117"></rect><text x="505" y="620" fill="#21252B">darkBG:Fail</text><rect x="500" y="700" width="100" height="100" fill="#ffffff"></rect><text x="505" y="720" fill="#21252B">darkBG:AAA</text><rect x="500" y="800" width="100" height="100" fill="#000000"></rect><text x="505" y="820" fill="#21252B">darkBG:Fail</text><rect x="600" y="0" width="100" height="100" fill="#e0e0e0"></rect><text x="605" y="20" fill="#0D1117">darkVoid:AAA</text><rect x="600" y="100" width="100" height="100" fill="#C6CCD7"></rect><text x="605" y="120" fill="#0D1117">darkVoid:AAA</text><rect x="600" y="200" width="100" height="100" fill="#F384A2"></rect><text x="605" y="220" fill="#0D1117">darkVoid:AAA</text><rect x="600" y="300" width="100" height="100" fill="#D34F73"></rect><text x="605" y="320" fill="#0D1117">darkVoid:AA</text><rect x="600" y="400" width="100" height="100" fill="#AB2F51"></rect><text x="605" y="420" fill="#0D1117">darkVoid:Fail</text><rect x="600" y="500" width="100" height="100" fill="#21252B"></rect><text x="605" y="520" fill="#0D1117">darkVoid:Fail</text><rect x="600" y="700" width="100" height="100" fill="#ffffff"></rect><text x="605" y="720" fill="#0D1117">darkVoid:AAA</text><rect x="600" y="800" width="100" height="100" fill="#000000"></rect><text x="605" y="820" fill="#0D1117">darkVoid:Fail</text><rect x="700" y="0" width="100" height="100" fill="#e0e0e0"></rect><text x="705" y="20" fill="#ffffff">pureWhite:Fail</text><rect x="700" y="100" width="100" height="100" fill="#C6CCD7"></rect><text x="705" y="120" fill="#ffffff">pureWhite:Fail</text><rect x="700" y="200" width="100" height="100" fill="#F384A2"></rect><text x="705" y="220" fill="#ffffff">pureWhite:Fail</text><rect x="700" y="300" width="100" height="100" fill="#D34F73"></rect><text x="705" y="320" fill="#ffffff">pureWhite:AA Large</text><rect x="700" y="400" width="100" height="100" fill="#AB2F51"></rect><text x="705" y="420" fill="#ffffff">pureWhite:AA</text><rect x="700" y="500" width="100" height="100" fill="#21252B"></rect><text x="705" y="520" fill="#ffffff">pureWhite:AAA</text><rect x="700" y="600" width="100" height="100" fill="#0D1117"></rect><text x="705" y="620" fill="#ffffff">pureWhite:AAA</text><rect x="700" y="800" width="100" height="100" fill="#000000"></rect><text x="705" y="820" fill="#ffffff">pureWhite:AAA</text><rect x="800" y="0" width="100" height="100" fill="#e0e0e0"></rect><text x="805" y="20" fill="#000000">pureBlack:AAA</text><rect x="800" y="100" width="100" height="100" fill="#C6CCD7"></rect><text x="805" y="120" fill="#000000">pureBlack:AAA</text><rect x="800" y="200" width="100" height="100" fill="#F384A2"></rect><text x="805" y="220" fill="#000000">pureBlack:AAA</text><rect x="800" y="300" width="100" height="100" fill="#D34F73"></rect><text x="805" y="320" fill="#000000">pureBlack:AA</text><rect x="800" y="400" width="100" height="100" fill="#AB2F51"></rect><text x="805" y="420" fill="#000000">pureBlack:AA Large</text><rect x="800" y="500" width="100" height="100" fill="#21252B"></rect><text x="805" y="520" fill="#000000">pureBlack:Fail</text><rect x="800" y="600" width="100" height="100" fill="#0D1117"></rect><text x="805" y="620" fill="#000000">pureBlack:Fail</text><rect x="800" y="700" width="100" height="100" fill="#ffffff"></rect><text x="805" y="720" fill="#000000">pureBlack:AAA</text></svg>