<svg width="512" height="308" viewBox="0 0 512 308" fill="none" xmlns="http://www.w3.org/2000/svg">
  <style>
    path {
      fill: var(--color-text, #474747)
    }
  </style>
  <path fill-rule="evenodd" clip-rule="evenodd"
    d="M37.4903 218.51C13.4857 194.505 0 161.948 0 128V0H128C175.301 1.76191 220.532 19.8542 256 51.2C270.885 38.0448 287.958 28.0125 305.744 19.8036C308.719 17.7415 312.824 17.9053 315.637 20.4272C327.47 37.9495 336.708 46.9331 352.695 56.5859C354.064 56.2041 355.508 56 357 56C361.866 56 366.225 58.1724 369.16 61.6003C402.626 52.3363 423.638 44.8834 453.001 31.1388C453 31.0926 453 31.0463 453 31C453 22.1634 460.163 15 469 15C477.837 15 485 22.1634 485 31C485 39.8366 477.837 47 469 47C468.368 47 467.744 46.9633 467.13 46.8919C464.323 60.7432 462.641 72.6372 460.891 88.1106C468.836 89.0461 475 95.8033 475 104C475 112.837 467.837 120 459 120C457.397 120 455.849 119.764 454.389 119.326C448.773 141.304 445.551 156.814 441.461 180.63C448.127 182.562 453 188.712 453 196C453 204.837 445.837 212 437 212C432.45 212 428.344 210.101 425.431 207.052C401.89 217.135 385.815 225.948 364 238.986C364 238.99 364 238.995 364 239C364 247.837 356.837 255 348 255C345.791 255 343.687 254.552 341.773 253.743C327.788 257.983 319.336 263.247 307 273.983L307 274.159C306.807 274.246 306.615 274.334 306.423 274.422C306.249 274.509 306.073 274.59 305.896 274.664C287.895 282.96 271.067 293.884 256 307.2C220.532 275.854 175.301 257.762 128 256C94.0523 256 61.495 242.514 37.4903 218.51ZM307.03 259.034C318.589 256.903 326.164 253.33 333.632 246.049C332.587 243.922 332 241.53 332 239C332 230.163 339.163 223 348 223C349.39 223 350.739 223.177 352.025 223.511C364.158 203.14 369.527 188.697 373.15 168C373.383 166.664 373.003 166.147 372.608 165.611C372.413 165.346 372.214 165.075 372.085 164.699C368.956 161.778 367 157.618 367 153C367 152.955 367 152.91 367.001 152.865C366.487 152.47 365.829 152.048 364.659 151.5C346.005 142.766 331.541 138.355 307.271 135.67L307.03 259.034ZM307.303 119.739C307.617 119.793 307.933 119.867 308.246 119.961C330.935 131.36 344.42 135.801 367 138.282C368.267 138.421 369.563 138.554 370.89 138.682C370.441 117.667 368.072 105.614 358.61 87.92C358.08 87.9729 357.543 88 357 88C353.376 88 350.034 86.7953 347.352 84.7646C332.27 85.6547 322.674 88.3274 307.798 96.4468C307.648 96.4861 307.498 96.5208 307.348 96.5512L307.303 119.739ZM307.378 81.0973C321.576 81.4457 330.393 79.7525 341.057 73.3626C341.019 72.9134 341 72.459 341 72C341 69.2254 341.706 66.6158 342.949 64.341C332.766 49.9898 324.21 42.1416 307.471 33.5991L307.378 81.0973ZM369.294 82.2408C372.101 101.67 375.752 115.181 382.93 134C383.316 135.01 383.861 135.735 384.417 136.475C384.573 136.684 384.73 136.893 384.885 137.11C388.306 137.511 391.396 138.992 393.807 141.201C394.721 140.799 395.62 140.399 396.504 140C416.139 131.14 428.695 122.939 443.863 109.197C443.304 107.568 443 105.819 443 104C443 96.0357 448.819 89.4305 456.438 88.2041C459.948 73.0579 462.112 61.4101 463.074 45.8666C459.677 44.5112 456.853 42.0254 455.068 38.8739C423.528 47.1847 403.44 54.9094 372.828 69.6449C372.941 70.4135 373 71.1999 373 72C373 75.8956 371.608 79.466 369.294 82.2408ZM448.193 115.798C427.352 125.661 415.315 133.553 399.898 146C399.282 146.497 398.661 147.001 398.034 147.513C398.659 149.224 399 151.072 399 153C399 161.066 393.031 167.738 385.27 168.84C384.885 169.568 384.507 170.288 384.135 171C374.303 189.843 368.991 203.581 362.699 229.349C387.79 221.743 402.65 215.007 421.886 201.265C421.312 199.616 421 197.844 421 196C421 187.376 427.823 180.345 436.366 180.012C444.232 156.921 447.993 142.126 449.457 116.844C449.018 116.517 448.596 116.168 448.193 115.798ZM102.4 102.4C140.8 102.4 179.2 115.2 179.2 153.6C128 153.6 102.4 153.6 102.4 102.4Z" />
</svg>