<svg viewBox="0 0 100 100" fill="none" xmlns="http://www.w3.org/2000/svg">
  <g>
    <g id="pr-pier">
      <rect x="32.0925" y="71.4074" width="4.44444" height="29.7222" style="fill:var(--color-bg-card);" />
      <rect x="20.7036" y="71.4074" width="4.44444" height="29.7222" style="fill:var(--color-bg-card);" />
      <rect x="9.3147" y="71.4074" width="4.44444" height="29.7222" style="fill:var(--color-bg-card);" />
      <rect x="-13" y="67.5185" width="54.4444" height="5.92593" rx="2.96296" style="fill:var(--color-bg-card);" />
    </g>
    <g id="pr-bird">
      <path
        d="M40.7434 63.1246C41.2654 61.1811 42.0397 59.3488 43.0472 57.6753C43.5466 56.8457 44.29 55.6105 45.4372 54.4209C45.4773 54.5639 45.5116 54.7144 45.5404 54.8752C45.7156 55.853 45.6378 56.8701 45.3093 57.8982C45.0822 58.6084 44.7856 59.0944 44.5476 59.485C44.4063 59.7168 43.8874 60.5368 43.144 61.3557C42.3165 62.2669 41.5102 62.8608 40.7434 63.1246Z"
        fill="#FDBFCF" />
      <path
        d="M47.031 48.5357C46.9991 48.4846 46.9696 48.4702 46.9113 48.4421C46.8472 48.4109 46.7594 48.3684 46.6675 48.2648C46.4754 48.0481 46.4459 47.771 46.4281 47.6057C46.4137 47.4699 46.424 47.4016 46.4326 47.3468C46.435 47.3306 46.437 47.3176 46.4381 47.3042C45.627 46.9898 44.9456 46.8303 44.412 46.8303C43.9778 46.8303 43.6363 46.9366 43.3969 47.1458C42.9206 47.5621 43.0029 48.2624 43.1274 49.3224C43.2093 50.0206 43.3112 50.8893 43.2724 51.9174C43.2498 52.5162 42.9593 57.8296 39.7831 59.9819C38.84 60.6211 38.1335 60.6465 37.1558 60.6818C36.2152 60.7158 34.9267 60.7624 32.8187 61.4054C30.8112 62.0179 29.3393 62.7806 28.0406 63.4538C26.2577 64.3776 24.5389 65.4586 22.9302 66.6674C22.9398 66.676 22.9494 66.6846 22.959 66.6931C23.0478 66.772 23.1483 66.8612 23.2491 66.8643H23.2546C23.3671 66.8643 23.4964 66.761 23.6387 66.5573L23.6473 66.545C23.947 66.1204 24.7392 65.8221 26.3173 65.2267C27.47 64.7922 28.1047 64.5529 29.0433 64.33C29.9696 64.1101 30.7014 63.9363 31.6023 63.9363C31.7429 63.9363 31.8876 63.9407 32.0324 63.9493C32.6366 63.9853 33.0907 64.0841 33.6658 64.2422C33.7035 64.2418 33.7412 64.2418 33.7789 64.2418C35.1545 64.2418 36.4895 64.4352 37.7498 64.8173C37.7855 64.7295 37.8218 64.6643 37.8369 64.6372C37.9919 64.3581 38.2553 64.107 39.0368 63.7881C39.5382 63.5834 39.7899 63.4808 40.3657 63.3691C40.4264 63.3574 40.4871 63.3433 40.5485 63.3276C40.9816 61.642 41.7031 59.6431 42.9298 57.6053C43.5111 56.6396 44.2855 55.3766 45.4998 54.1619C45.4219 53.9349 45.3352 53.7456 45.246 53.5512C45.0512 53.1276 44.8499 52.6897 44.7484 51.8258C44.6994 51.4082 44.6606 50.7669 44.8907 50.0203C45.0022 49.6592 45.2093 48.987 45.8156 48.6702C45.9298 48.6105 46.1208 48.5107 46.3636 48.5107C46.4027 48.5107 46.4422 48.5134 46.4806 48.5186C46.72 48.5512 46.8846 48.6739 47.0049 48.7634C47.0296 48.782 47.0601 48.8046 47.0841 48.82C47.0972 48.759 47.0927 48.6345 47.031 48.5357ZM45.2783 47.9507C45.1078 47.9507 44.9696 47.8125 44.9696 47.642C44.9696 47.4716 45.1078 47.3334 45.2783 47.3334C45.4487 47.3334 45.5869 47.4716 45.5869 47.642C45.5869 47.8125 45.4487 47.9507 45.2783 47.9507Z"
        fill="#F384A2" />
      <path
        d="M48.999 46.5275C48.9599 46.3865 48.8454 45.9726 48.4503 45.6701C48.0817 45.3879 47.6917 45.3738 47.3529 45.3615C47.0899 45.3519 46.464 45.3292 45.9812 45.7044C45.8457 45.8097 45.7943 45.8896 45.6382 45.9445C45.2836 46.069 44.9301 45.8731 44.7809 45.8073C44.1773 45.5405 43.4273 45.855 42.7233 46.1502C41.2665 46.761 40.4867 48.0984 39.8426 49.2024C39.5532 49.6986 39.5957 49.7205 39.3625 50.0597C39.1568 50.3591 38.5659 51.1533 37.1677 51.9801C36.4448 52.4078 35.9421 52.5861 35.5216 52.7689C35.5216 52.7689 32.8553 53.927 29.2116 58.8045C28.9153 59.2013 28.6629 59.5933 28.6629 59.5933C28.3214 60.1242 28.1098 60.5353 28.0456 60.6564C27.6139 61.4702 26.9397 62.1725 26.0909 63.0569C26.0909 63.0569 25.1694 64.0168 23.7589 65.1489C23.3351 65.489 23.1235 65.6588 23.0388 65.6976C22.9342 65.7452 22.797 65.796 22.6958 65.9376C22.5539 66.1369 22.5899 66.3656 22.593 66.3834C22.6125 66.4952 22.6622 66.581 22.7219 66.6516C24.1159 65.5947 25.8653 64.4256 27.9771 63.3313C29.3028 62.6444 30.7586 61.8899 32.7782 61.2737C37.0432 59.9722 37.891 61.0971 39.7055 59.8676C42.8519 57.7356 43.1146 52.4493 43.1348 51.9115C43.2329 49.3196 42.4328 47.8056 43.3063 47.0419C43.9983 46.4366 45.2874 46.6996 46.5693 47.2078C46.5679 47.1986 46.5662 47.1893 46.5642 47.179C46.5446 47.0779 46.4873 46.7816 46.2555 46.596C46.1808 46.536 46.1201 46.5137 46.1002 46.4407C46.0635 46.3069 46.2072 46.1639 46.2212 46.1502C46.3961 45.9801 46.6622 46 46.8385 46.0131C46.929 46.0199 47.238 46.0467 47.5587 46.2531C47.7428 46.3718 47.8828 46.4616 47.9359 46.6303C47.9705 46.7401 47.9455 46.8097 48.0045 47.0076C48.0402 47.1272 48.058 47.1869 48.1074 47.2476C48.2614 47.4366 48.5391 47.4201 48.5532 47.4191C48.7415 47.405 48.9109 47.2949 48.999 47.1447C49.1149 46.9465 49.0563 46.7349 48.999 46.5275Z"
        fill="#D34F73" />
      <path
        d="M33.6477 64.3789C33.8147 64.4249 33.991 64.4756 34.1844 64.5315C36.1649 65.1022 36.7616 65.7328 37.4766 66.0061C37.5078 66.0181 37.6796 66.083 37.8195 66.2462C37.8662 66.3007 37.9961 66.452 37.9567 66.5891C37.9251 66.6982 37.8003 66.7507 37.6823 66.7949C37.1552 66.9924 36.7389 67.1485 36.2763 67.1721C36.2396 67.1738 36.0956 67.1803 35.9677 67.275C35.9255 67.3062 35.8257 67.3799 35.8305 67.4808C35.8356 67.5905 35.9622 67.6786 36.0705 67.6865C36.1902 67.6951 36.2859 67.6052 36.3106 67.5836C36.599 67.3299 37.4485 67.3367 38.2996 67.3436C38.4814 67.345 38.9262 67.3789 39.8085 67.4465C39.8085 67.4465 40.4951 67.4989 40.8373 67.6865C40.8943 67.7177 40.921 67.7301 40.9745 67.7551C41.0568 67.7935 41.099 67.8131 41.146 67.8237C41.2012 67.8364 41.276 67.8535 41.3518 67.8237C41.4447 67.787 41.5253 67.6848 41.5232 67.5836C41.5201 67.4334 41.336 67.3378 41.2146 67.275C41.1264 67.2294 41.0537 67.2095 41.0431 67.2064C40.7444 67.1241 40.3644 66.9245 40.1172 66.7949C39.5609 66.5031 39.6919 66.3885 39.2256 66.1776C38.931 66.0442 38.8281 66.0672 38.4025 65.869C37.9536 65.6598 37.8826 65.5483 37.8538 65.4917C37.7691 65.3268 37.79 65.1389 37.8349 64.9866C36.3319 64.514 34.8987 64.3679 33.6477 64.3789Z"
        fill="#D34F73" />
    </g>
    <path id="pr-sea"
      d="M0 84L0.195312 84.0338L0.390625 84.134L0.585938 84.2973L0.78125 84.5181L0.976562 84.789L1.17188 85.1008L1.36719 85.443L1.5625 85.804L1.75781 86.1716L1.95312 86.5334L2.14844 86.8772L2.34375 87.1914L2.53906 87.4653L2.73438 87.6897L2.92969 87.857L3.125 87.9616L3.32031 87.9998L3.51562 87.9706L3.71094 87.8747L3.90625 87.7155L4.10156 87.4983L4.29688 87.2305L4.49219 86.9211L4.6875 86.5806L4.88281 86.2204L5.07812 85.8529L5.27344 85.4903L5.46875 85.1449L5.66406 84.8284L5.85938 84.5515L6.05469 84.3236L6.25 84.1522L6.44531 84.0434L6.64062 84.0006L6.83594 84.0254L7.03125 84.1169L7.22656 84.2721L7.42188 84.4856L7.61719 84.7503L7.8125 85.0572L8.00781 85.396L8.20312 85.7552L8.39844 86.1226L8.59375 86.486L8.78906 86.8329L8.98438 87.1516L9.17969 87.4315L9.375 87.6629L9.57031 87.8382L9.76562 87.9514L9.96094 87.9986L10.1562 87.9784L10.3516 87.8912L10.5469 87.7402L10.7422 87.5303L10.9375 87.2688L11.1328 86.9644L11.3281 86.6274L11.5234 86.2692L11.7188 85.9019L11.9141 85.5379L12.1094 85.1895L12.3047 84.8685L12.5 84.5858L12.6953 84.3508L12.8906 84.1716L13.0859 84.0541L13.2812 84.0024L13.4766 84.0182L13.6719 84.1009L13.8672 84.2479L14.0625 84.454L14.2578 84.7123L14.4531 85.0142L14.6484 85.3494L14.8438 85.7065L15.0391 86.0736L15.2344 86.4382L15.4297 86.788L15.625 87.1111L15.8203 87.3968L16.0156 87.6352L16.2109 87.8183L16.4062 87.9401L16.6016 87.9962L16.7969 87.985L16.9922 87.9066L17.1875 87.7638L17.3828 87.5615L17.5781 87.3063L17.7734 87.0071L17.9688 86.6738L18.1641 86.3177L18.3594 85.9509L18.5547 85.5858L18.75 85.2346L18.9453 84.9093L19.1406 84.6209L19.3359 84.3791L19.5312 84.192L19.7266 84.066L19.9219 84.0054L20.1172 84.0122L20.3125 84.0861L20.5078 84.2247L20.7031 84.4233L20.8984 84.6752L21.0938 84.9718L21.2891 85.3032L21.4844 85.6581L21.6797 86.0245L21.875 86.3902L22.0703 86.7426L22.2656 87.07L22.4609 87.3612L22.6562 87.6064L22.8516 87.7973L23.0469 87.9276L23.2422 87.9926L23.4375 87.9904L23.6328 87.9209L23.8281 87.7864L24.0234 87.5917L24.2188 87.3431L24.4141 87.0492L24.6094 86.7198L24.8047 86.3661L25 86L25.1953 85.6339L25.3906 85.2802L25.5859 84.9508L25.7812 84.6569L25.9766 84.4083L26.1719 84.2136L26.3672 84.0791L26.5625 84.0096L26.7578 84.0074L26.9531 84.0724L27.1484 84.2027L27.3438 84.3936L27.5391 84.6388L27.7344 84.93L27.9297 85.2574L28.125 85.6098L28.3203 85.9755L28.5156 86.3419L28.7109 86.6968L28.9062 87.0282L29.1016 87.3248L29.2969 87.5767L29.4922 87.7753L29.6875 87.9139L29.8828 87.9878L30.0781 87.9946L30.2734 87.934L30.4688 87.808L30.6641 87.6209L30.8594 87.3791L31.0547 87.0907L31.25 86.7654L31.4453 86.4142L31.6406 86.0491L31.8359 85.6823L32.0312 85.3262L32.2266 84.9929L32.4219 84.6937L32.6172 84.4385L32.8125 84.2362L33.0078 84.0934L33.2031 84.015L33.3984 84.0038L33.5938 84.0599L33.7891 84.1817L33.9844 84.3648L34.1797 84.6032L34.375 84.8889L34.5703 85.212L34.7656 85.5618L34.9609 85.9264L35.1562 86.2935L35.3516 86.6506L35.5469 86.9858L35.7422 87.2877L35.9375 87.546L36.1328 87.7521L36.3281 87.8991L36.5234 87.9818L36.7188 87.9976L36.9141 87.9459L37.1094 87.8284L37.3047 87.6492L37.5 87.4142L37.6953 87.1315L37.8906 86.8105L38.0859 86.4621L38.2812 86.0981L38.4766 85.7308L38.6719 85.3726L38.8672 85.0356L39.0625 84.7312L39.2578 84.4697L39.4531 84.2598L39.6484 84.1088L39.8438 84.0216L40.0391 84.0014L40.2344 84.0486L40.4297 84.1618L40.625 84.3371L40.8203 84.5685L41.0156 84.8484L41.2109 85.1671L41.4062 85.514L41.6016 85.8774L41.7969 86.2448L41.9922 86.604L42.1875 86.9428L42.3828 87.2497L42.5781 87.5144L42.7734 87.7279L42.9688 87.8831L43.1641 87.9746L43.3594 87.9994L43.5547 87.9566L43.75 87.8478L43.9453 87.6764L44.1406 87.4485L44.3359 87.1716L44.5312 86.8551L44.7266 86.5097L44.9219 86.1471L45.1172 85.7796L45.3125 85.4194L45.5078 85.0789L45.7031 84.7695L45.8984 84.5017L46.0938 84.2845L46.2891 84.1253L46.4844 84.0294L46.6797 84.0002L46.875 84.0384L47.0703 84.143L47.2656 84.3103L47.4609 84.5347L47.6562 84.8086L47.8516 85.1228L48.0469 85.4666L48.2422 85.8284L48.4375 86.196L48.6328 86.557L48.8281 86.8992L49.0234 87.211L49.2188 87.4819L49.4141 87.7027L49.6094 87.866L49.8047 87.9662L50 88L50.1953 87.9662L50.3906 87.866L50.5859 87.7027L50.7812 87.4819L50.9766 87.211L51.1719 86.8992L51.3672 86.557L51.5625 86.196L51.7578 85.8284L51.9531 85.4666L52.1484 85.1228L52.3438 84.8086L52.5391 84.5347L52.7344 84.3103L52.9297 84.143L53.125 84.0384L53.3203 84.0002L53.5156 84.0294L53.7109 84.1253L53.9062 84.2845L54.1016 84.5017L54.2969 84.7695L54.4922 85.0789L54.6875 85.4194L54.8828 85.7796L55.0781 86.1471L55.2734 86.5097L55.4688 86.8551L55.6641 87.1716L55.8594 87.4485L56.0547 87.6764L56.25 87.8478L56.4453 87.9566L56.6406 87.9994L56.8359 87.9746L57.0312 87.8831L57.2266 87.7279L57.4219 87.5144L57.6172 87.2497L57.8125 86.9428L58.0078 86.604L58.2031 86.2448L58.3984 85.8774L58.5938 85.514L58.7891 85.1671L58.9844 84.8484L59.1797 84.5685L59.375 84.3371L59.5703 84.1618L59.7656 84.0486L59.9609 84.0014L60.1562 84.0216L60.3516 84.1088L60.5469 84.2598L60.7422 84.4697L60.9375 84.7312L61.1328 85.0356L61.3281 85.3726L61.5234 85.7308L61.7188 86.0981L61.9141 86.4621L62.1094 86.8105L62.3047 87.1315L62.5 87.4142L62.6953 87.6492L62.8906 87.8284L63.0859 87.9459L63.2812 87.9976L63.4766 87.9818L63.6719 87.8991L63.8672 87.7521L64.0625 87.546L64.2578 87.2877L64.4531 86.9858L64.6484 86.6506L64.8438 86.2935L65.0391 85.9264L65.2344 85.5618L65.4297 85.212L65.625 84.8889L65.8203 84.6032L66.0156 84.3648L66.2109 84.1817L66.4062 84.0599L66.6016 84.0038L66.7969 84.015L66.9922 84.0934L67.1875 84.2362L67.3828 84.4385L67.5781 84.6937L67.7734 84.9929L67.9688 85.3262L68.1641 85.6823L68.3594 86.0491L68.5547 86.4142L68.75 86.7654L68.9453 87.0907L69.1406 87.3791L69.3359 87.6209L69.5312 87.808L69.7266 87.934L69.9219 87.9946L70.1172 87.9878L70.3125 87.9139L70.5078 87.7753L70.7031 87.5767L70.8984 87.3248L71.0938 87.0282L71.2891 86.6968L71.4844 86.3419L71.6797 85.9755L71.875 85.6098L72.0703 85.2574L72.2656 84.93L72.4609 84.6388L72.6562 84.3936L72.8516 84.2027L73.0469 84.0724L73.2422 84.0074L73.4375 84.0096L73.6328 84.0791L73.8281 84.2136L74.0234 84.4083L74.2188 84.6569L74.4141 84.9508L74.6094 85.2802L74.8047 85.6339L75 86L75.1953 86.3661L75.3906 86.7198L75.5859 87.0492L75.7812 87.3431L75.9766 87.5917L76.1719 87.7864L76.3672 87.9209L76.5625 87.9904L76.7578 87.9926L76.9531 87.9276L77.1484 87.7973L77.3438 87.6064L77.5391 87.3612L77.7344 87.07L77.9297 86.7426L78.125 86.3902L78.3203 86.0245L78.5156 85.6581L78.7109 85.3032L78.9062 84.9718L79.1016 84.6752L79.2969 84.4233L79.4922 84.2247L79.6875 84.0861L79.8828 84.0122L80.0781 84.0054L80.2734 84.066L80.4688 84.192L80.6641 84.3791L80.8594 84.6209L81.0547 84.9093L81.25 85.2346L81.4453 85.5858L81.6406 85.9509L81.8359 86.3177L82.0312 86.6738L82.2266 87.0071L82.4219 87.3063L82.6172 87.5615L82.8125 87.7638L83.0078 87.9066L83.2031 87.985L83.3984 87.9962L83.5938 87.9401L83.7891 87.8183L83.9844 87.6352L84.1797 87.3968L84.375 87.1111L84.5703 86.788L84.7656 86.4382L84.9609 86.0736L85.1562 85.7065L85.3516 85.3494L85.5469 85.0142L85.7422 84.7123L85.9375 84.454L86.1328 84.2479L86.3281 84.1009L86.5234 84.0182L86.7188 84.0024L86.9141 84.0541L87.1094 84.1716L87.3047 84.3508L87.5 84.5858L87.6953 84.8685L87.8906 85.1895L88.0859 85.5379L88.2812 85.9019L88.4766 86.2692L88.6719 86.6274L88.8672 86.9644L89.0625 87.2688L89.2578 87.5303L89.4531 87.7402L89.6484 87.8912L89.8438 87.9784L90.0391 87.9986L90.2344 87.9514L90.4297 87.8382L90.625 87.6629L90.8203 87.4315L91.0156 87.1516L91.2109 86.8329L91.4062 86.486L91.6016 86.1226L91.7969 85.7552L91.9922 85.396L92.1875 85.0572L92.3828 84.7503L92.5781 84.4856L92.7734 84.2721L92.9688 84.1169L93.1641 84.0254L93.3594 84.0006L93.5547 84.0434L93.75 84.1522L93.9453 84.3236L94.1406 84.5515L94.3359 84.8284L94.5312 85.1449L94.7266 85.4903L94.9219 85.8529L95.1172 86.2204L95.3125 86.5806L95.5078 86.9211L95.7031 87.2305L95.8984 87.4983L96.0938 87.7155L96.2891 87.8747L96.4844 87.9706L96.6797 87.9998L96.875 87.9616L97.0703 87.857L97.2656 87.6897L97.4609 87.4653L97.6562 87.1914L97.8516 86.8772L98.0469 86.5334L98.2422 86.1716L98.4375 85.804L98.6328 85.443L98.8281 85.1008L99.0234 84.789L99.2188 84.5181L99.4141 84.2973L99.6094 84.134L99.8047 84.0338L100 86V106H0V86"
      style="fill:var(--color-bg-card);" />
  </g>
</svg>