<?xml version="1.0" encoding="UTF-8" standalone="no"?>
<!DOCTYPE svg PUBLIC "-//W3C//DTD SVG 1.1//EN" "http://www.w3.org/Graphics/SVG/1.1/DTD/svg11.dtd">
<svg width="100%" height="100%" viewBox="0 0 720 720" version="1.1" xmlns="http://www.w3.org/2000/svg" xmlns:xlink="http://www.w3.org/1999/xlink" xml:space="preserve" xmlns:serif="http://www.serif.com/" style="fill-rule:evenodd;clip-rule:evenodd;stroke-linecap:round;stroke-linejoin:round;stroke-miterlimit:1.5;">
    <g id="Layer1">
        <path d="M93.674,301.746C126.987,279.3 144.637,255.09 150.657,228.443C156.627,202.02 151.086,172.897 136.797,140.041C135.036,135.992 130.319,134.134 126.27,135.895C122.221,137.656 120.364,142.373 122.125,146.422C134.828,175.632 140.358,201.426 135.051,224.917C129.794,248.183 113.82,268.879 84.734,288.477C81.072,290.944 80.102,295.92 82.569,299.581C85.036,303.243 90.012,304.213 93.674,301.746Z" style="fill:rgb(219,55,96);"/>
        <path d="M222.031,452.372C222.63,448.548 225.942,445.62 229.933,445.62C234.348,445.62 237.933,449.205 237.933,453.62C237.933,455.636 237.391,457.846 236.086,460.143C234.549,462.849 231.525,466.058 227.563,469.499C222.517,473.881 215.743,478.996 210.15,484.788C205.806,489.287 201.957,494.068 201.654,499.516C201.271,506.378 205.506,514.752 210.798,524.077C220.263,540.755 233.723,559.576 240.646,576.883C246.115,590.557 247.505,603.483 242.278,614.339C238.72,621.727 232.086,628.413 220.845,633.57C216.831,635.411 212.079,633.648 210.237,629.635C208.396,625.622 210.16,620.869 214.173,619.028C220.791,615.992 225.138,612.429 227.476,608.149C230.092,603.359 230.037,597.864 228.723,592.007C227.099,584.769 223.534,577.083 219.258,569.268C211.238,554.611 200.734,539.619 193.811,526.347C188.422,516.015 185.241,506.469 185.678,498.625C186.038,492.173 188.763,486.002 192.975,480.302C198.197,473.233 205.786,466.841 212.39,461.36C216.358,458.067 221.114,453.299 222.031,452.372Z" style="fill:rgb(237,192,55);"/>
        <path d="M525.602,264.458C521.437,264.458 516.361,266.498 511.33,270.209C503.031,276.329 494.126,287.109 489.968,291.383C474.436,307.349 466.483,325.567 472.112,347.804C478.909,374.658 503.982,396.725 523.532,416.472C529.361,422.359 534.622,428.026 538.445,433.624C541.554,438.177 543.732,442.568 543.879,447.055C544.024,451.468 547.724,454.933 552.137,454.789C556.55,454.644 560.015,450.944 559.871,446.531C559.434,433.196 548.989,419.443 534.902,405.215C517.253,387.388 493.759,368.12 487.622,343.878C483.477,327.5 489.997,314.299 501.437,302.54C504.751,299.133 511.246,291.216 517.9,285.445C519.747,283.843 521.591,282.416 523.37,281.411C524.192,280.946 524.899,280.458 525.602,280.458C530.018,280.458 533.602,276.874 533.602,272.458C533.602,268.043 530.018,264.458 525.602,264.458Z" style="fill:url(#_Linear1);"/>
        <path d="M523.12,543.76C498.554,543.76 479.376,531.392 461.425,516.548C441.703,500.238 423.424,480.928 402.446,468.634C375.692,452.956 294.968,440.406 264.417,433.431C260.112,432.448 255.82,435.145 254.837,439.449C253.854,443.754 256.551,448.047 260.855,449.029C290.37,455.768 368.509,467.292 394.356,482.438C414.627,494.317 432.172,513.119 451.229,528.878C472.058,546.103 494.614,559.76 523.12,559.76C527.535,559.76 531.12,556.176 531.12,551.76C531.12,547.345 527.535,543.76 523.12,543.76Z" style="fill:url(#_Linear2);"/>
    </g>
    <g>
        <circle cx="119.438" cy="114.602" r="38.421" style="fill:rgb(255,97,136);"/>
        <g transform="matrix(1,0,0,1,-41.2394,197.24)">
            <circle cx="119.438" cy="114.602" r="38.421" style="fill:rgb(255,97,136);"/>
        </g>
        <g transform="matrix(1,0,0,1,105.546,317.172)">
            <circle cx="119.438" cy="114.602" r="38.421" style="fill:rgb(255,216,102);"/>
        </g>
        <g transform="matrix(1,0,0,1,526.781,332.408)">
            <circle cx="119.438" cy="114.602" r="38.421" style="fill:rgb(169,220,118);"/>
        </g>
        <g transform="matrix(1,0,0,1,345.389,-9.10971)">
            <circle cx="119.438" cy="114.602" r="38.421" style="fill:rgb(120,220,232);"/>
        </g>
        <g transform="matrix(1,0,0,1,431.416,133.129)">
            <circle cx="119.438" cy="114.602" r="38.421" style="fill:rgb(120,220,232);"/>
        </g>
        <g transform="matrix(1,0,0,1,506.282,17.4045)">
            <circle cx="119.438" cy="114.602" r="38.421" style="fill:rgb(120,220,232);"/>
        </g>
        <g transform="matrix(1,0,0,1,431.945,439.635)">
            <circle cx="119.438" cy="114.602" r="38.421" style="fill:rgb(169,220,118);"/>
        </g>
        <g transform="matrix(1,0,0,1,70.2237,524.999)">
            <circle cx="119.438" cy="114.602" r="38.421" style="fill:rgb(255,216,102);"/>
        </g>
    </g>
    <g>
        <path d="M91.585,391.228C91.585,391.228 153.39,367.554 171.711,349.006C221.76,298.337 231.369,229.549 222.684,160.812C220.577,144.144 218.495,125.069 211.023,109.849C194.65,76.501 152.405,47.802 114.995,46.242C70.053,44.367 50.495,66.229 37.101,106.066C31.467,122.822 26.746,141.093 27.706,158.95C28.966,182.369 40.084,202.442 36.843,226.572C32.311,260.313 9.598,292.339 16.005,327.573C22.588,363.779 49.747,406.539 91.585,391.228Z" style="fill:none;stroke:rgb(255,185,204);stroke-width:8px;"/>
        <path d="M287.476,597.279C281.441,577.818 253.676,566.294 258.241,547.643C265.383,518.462 340.231,483.153 330.328,422.197C321.873,370.156 240.295,315.671 192.481,351.697C135.251,394.818 175.36,443.516 164.515,496.663C156.29,536.971 114.906,552.357 104.273,590.396C81.517,671.801 163.434,738.255 242.583,707.811C287.773,690.429 300.789,640.209 287.476,597.279Z" style="fill:none;stroke:rgb(255,242,205);stroke-width:8px;"/>
        <path d="M570.98,433.138C541.414,469.464 471.908,549.073 476.48,595.685C481.935,651.296 559.067,645.546 596.045,629.884C614.098,622.238 630.149,609.726 644.273,596.254C685.899,556.551 704.503,495.326 700.564,439.12C698.733,412.991 685.941,377.035 653.88,377.729C618.077,378.504 591.961,407.36 570.98,433.138Z" style="fill:none;stroke:rgb(205,239,170);stroke-width:8px;"/>
        <path d="M538.455,314.695C563.512,319.109 588.393,298.264 607.28,281.69C645.285,248.339 703.364,158.313 672.169,107.315C663.513,93.164 648.005,82.115 632.331,77.046C605.306,68.307 577.123,75.643 549.851,69.868C515.101,62.51 485.33,38.51 447.691,45.295C385.609,56.487 365.407,123.77 375.396,178.834C379.786,203.032 392.48,226.079 406.09,246.244C439.662,295.983 504.924,308.787 538.455,314.695Z" style="fill:none;stroke:rgb(194,239,245);stroke-width:8px;"/>
    </g>
    <defs>
        <linearGradient id="_Linear1" x1="0" y1="0" x2="1" y2="0" gradientUnits="userSpaceOnUse" gradientTransform="matrix(22.5659,161.773,-161.773,22.5659,525.602,272.458)"><stop offset="0" style="stop-color:rgb(100,187,198);stop-opacity:1"/><stop offset="1" style="stop-color:rgb(182,217,146);stop-opacity:1"/></linearGradient>
        <linearGradient id="_Linear2" x1="0" y1="0" x2="1" y2="0" gradientUnits="userSpaceOnUse" gradientTransform="matrix(260.484,0,0,110.53,262.636,496.495)"><stop offset="0" style="stop-color:rgb(239,192,54);stop-opacity:1"/><stop offset="1" style="stop-color:rgb(131,176,86);stop-opacity:1"/></linearGradient>
    </defs>
</svg>
